# xmcd
#
# Track frame offsets: 
#        150
#        13413
#        28447
#        42185
#        54690
#        67163
#        82462
#        94973
#        107349
#        120497
#        136046
#        149193
#        163100
#        174874
#        189159
#        204117
#        218223
#        230883
#        245486
#        257276
#
# Disc length: 3604 seconds
#
# Revision: 0
# Processed by: cddbd v1.5.2PL0 Copyright (c) Steve Scherf et al.
# Submitted via: ExactAudioCopyFreeDBPlugin 1.0
#
DISCID=280e1214
DTITLE=Various Artist - Texas Blues #1
DYEAR=1900
DGENRE=Blues
TTITLE0=Blind Lemon Jefferson - Match Box Blues
TTITLE1=Blind Willie Johnson - Dark Was the Night (Cold Was the Ground
TTITLE1=)
TTITLE2=Blind Lemon Jefferson - Black Snake Moan
TTITLE3=Henry Thomas - John Henry
TTITLE4=Blind Lemon Jefferson - He Arose From the Ground
TTITLE5=Blind Willie Johnson - Motherless Children
TTITLE6=Ramblin' Thomas - So Lonesome
TTITLE7=Henry Thomas - Fishing Blues
TTITLE8=Blind Lemon Jefferson - See That My Grave is Kept Clean
TTITLE9=Henry Thomas - Bull Doze Blues
TTITLE10=Sippie Wallace - I'm a Mighty Tight Woman
TTITLE11=Little Nat Jones - Rolled From Side to Side Blues
TTITLE12=Jesse 'Babyface' Thomas - Blue Goose Blues
TTITLE13=Little Nat Jones - Bye Bye Baby Blues
TTITLE14=Coley Jones - The Drunkard's Special
TTITLE15=Oscar Woods - Evil Hearted Woman Blues
TTITLE16=Black Ace - Black Ace
TTITLE17=Oscar Woods - Lone Wolf Blues
TTITLE18=Black Ace - You Gonna Need My Help Some Day
TTITLE19=T-Bone Walker - Mean Old World
EXTD=
EXTT0=
EXTT1=
EXTT2=
EXTT3=
EXTT4=
EXTT5=
EXTT6=
EXTT7=
EXTT8=
EXTT9=
EXTT10=
EXTT11=
EXTT12=
EXTT13=
EXTT14=
EXTT15=
EXTT16=
EXTT17=
EXTT18=
EXTT19=
PLAYORDER=
